<svg xmlns="http://www.w3.org/2000/svg" version="1.1" xmlns:xlink="http://www.w3.org/1999/xlink" xmlns:svgjs="http://svgjs.dev/svgjs" width="2000" height="631" viewBox="0 0 2000 631"><g transform="matrix(1,0,0,1,-1.2121212121212466,1.018413972975793)"><svg viewBox="0 0 396 125" data-background-color="#ffffff" preserveAspectRatio="xMidYMid meet" height="631" width="2000" xmlns="http://www.w3.org/2000/svg" xmlns:xlink="http://www.w3.org/1999/xlink"><g id="tight-bounds" transform="matrix(1,0,0,1,0.2400000000000091,-0.2017427221184107)"><svg viewBox="0 0 395.52 125.40348875479978" height="125.40348875479978" width="395.52"><g><svg viewBox="0 0 395.52 125.40348875479978" height="125.40348875479978" width="395.52"><g><svg viewBox="0 0 395.52 125.40348875479978" height="125.40348875479978" width="395.52"><g id="textblocktransform"><svg viewBox="0 0 395.52 125.40348875479978" height="125.40348875479978" width="395.52" id="textblock"><g><svg viewBox="0 0 395.52 125.40348875479978" height="125.40348875479978" width="395.52"><g transform="matrix(1,0,0,1,0,0)"><svg width="395.52" viewBox="0 -38.349998474121094 182.27000427246094 57.79999923706055" height="125.40348875479978" data-palette-color="#a437db"><path d="M23.45-34.7L23.45-34.7Q23.2-34 14.25-17.55L14.25-17.55Q16.15-17.35 17.9-16.65L17.9-16.65Q24.4-20.7 29.98-25.88 35.55-31.05 38.05-36.05L38.05-36.05Q38.1-36.55 38.53-36.55 38.95-36.55 39.48-36.3 40-36.05 40-35.7L40-35.7Q38.05-30.9 32.2-25.63 26.35-20.35 19.1-16.05L19.1-16.05Q24.5-13.15 24.5-5.8L24.5-5.8Q24.5-3.65 23.95-1.85 23.4-0.05 22.9 0.65L22.9 0.65 22.35 1.35Q21.95 1.35 21.95 0.85L21.95 0.85 22.25-0.1Q22.95-2.25 22.95-4.2L22.95-4.2Q22.95-11.8 17.25-15L17.25-15Q14.5-13.5 11.25-12L11.25-12Q7.15-4.55 5-0.9L5-0.9Q4.65-0.05 4.08 0.2 3.5 0.45 2.9 0.45 2.3 0.45 2.3 0.25L2.3 0.25 8.35-10.85Q5.05-9.65 2.85-9.65L2.85-9.65Q0-9.65 0-11.85 0-14.05 3.78-15.88 7.55-17.7 12.1-17.7L12.1-17.7 20.95-33.95Q21.1-34.35 21.88-34.63 22.65-34.9 23.05-34.9 23.45-34.9 23.45-34.7ZM10.6-16.6L10.6-16.6Q7.1-16.6 4.45-15.3 1.8-14 1.8-12.2L1.8-12.2Q1.8-10.65 3.78-10.65 5.75-10.65 8.95-11.95L8.95-11.95 11.45-16.55Q11.15-16.6 10.6-16.6ZM13.6-16.3L13.6-16.3Q12.25-13.8 11.95-13.25L11.95-13.25Q13.5-14 16.1-15.55L16.1-15.55Q14.9-16.05 13.6-16.3ZM26.7-3.35L26.7-3.35Q26.5-3.25 26.32-3.25 26.15-3.25 26.15-3.45 26.15-3.65 26.3-3.8L26.3-3.8Q28.35-4.95 30.8-7.55L30.8-7.55Q28.55-8.25 28.55-9.53 28.55-10.8 30.25-12.38 31.95-13.95 33.45-13.95L33.45-13.95Q34.45-13.95 34.45-12.75L34.45-12.75Q34.45-10.9 32.6-8.8L32.6-8.8Q35-8.4 35-7.65L35-7.65Q35-6.65 34.12-6.13 33.25-5.6 32.1-4.25 30.95-2.9 30.95-1.55L30.95-1.55Q30.95-1.25 31.15-1 31.35-0.75 32-0.75 32.65-0.75 34.75-1.73 36.85-2.7 38.45-3.7L38.45-3.7 40.05-4.7Q40.1-4.6 40.1-4.3 40.1-4 39.65-3.8L39.65-3.8Q32.9 0.8 30.25 0.8L30.25 0.8Q28.95 0.8 28.95-0.5L28.95-0.5Q28.95-1.55 29.67-2.7 30.4-3.85 31.27-4.6 32.15-5.35 32.87-6.03 33.6-6.7 33.6-6.9 33.6-7.1 32.97-7.15 32.35-7.2 31.35-7.4L31.35-7.4Q28.6-4.45 26.7-3.35ZM29.8-10.3L29.8-10.3Q29.8-9.3 32-8.9L32-8.9Q33.3-10.5 33.3-11.68 33.3-12.85 32.55-12.85 31.8-12.85 30.8-11.98 29.8-11.1 29.8-10.3ZM47.55-15.25L47.55-15.25Q48.3-15.25 48.3-14.5 48.3-13.75 47.59-12.98 46.89-12.2 46.05-12.2L46.05-12.2Q45.34-12.2 45.34-13.18 45.34-14.15 46.14-14.7 46.95-15.25 47.55-15.25ZM42.84-8.65L42.84-8.65Q43.09-9.05 43.55-9.05 43.99-9.05 44.45-8.6L44.45-8.6Q44.45-8.4 43.8-7.7 43.14-7 41.59-4.58 40.05-2.15 40.05-1.35L40.05-1.35Q40.05-0.85 40.8-0.75L40.8-0.75Q41.8-0.75 43.89-1.73 45.99-2.7 47.59-3.7L47.59-3.7 49.2-4.7Q49.24-4.6 49.24-4.3 49.24-4 48.8-3.8L48.8-3.8Q42.05 0.8 39.39 0.8L39.39 0.8Q38.09 0.8 38.09-0.5 38.09-1.8 39.52-4.13 40.95-6.45 42.84-8.65ZM53.69-8L53.69-8Q56.99-9.85 59.32-9.85 61.64-9.85 61.64-7.9L61.64-7.9Q61.64-5.25 58.32-2.38 54.99 0.5 51.69 0.5L51.69 0.5Q51.39 0.5 50.94 0.2 50.49-0.1 50.49-0.8 50.49-1.5 51.62-2.45 52.74-3.4 52.97-3.4 53.19-3.4 53.42-3.33 53.64-3.25 53.87-3.05 54.09-2.85 54.09-2.7 54.09-2.55 53.84-2.3L53.84-2.3Q53.34-1.95 52.77-1.38 52.19-0.8 52.19-0.58 52.19-0.35 52.69-0.35 53.19-0.35 54.79-1.07 56.39-1.8 57.99-3.48 59.59-5.15 59.59-7.15L59.59-7.15Q59.59-8.4 58.14-8.4L58.14-8.4Q55.94-8.4 52.94-6.7L52.94-6.7Q48.64 0.5 47.54 2.5L47.54 2.5Q43.19 10.5 39.79 14.98 36.39 19.45 33.69 19.45L33.69 19.45Q32.79 19.45 32.79 18.35L32.79 18.35Q32.79 13.95 38.62 6.23 44.44-1.5 50.99-6.25L50.99-6.25Q56.04-14.6 57.09-16.7L57.09-16.7Q56.54-16.05 55.24-15.15L55.24-15.15 52.39-13.2Q52.09-13.1 51.84-13.1 51.59-13.1 51.54-13.35L51.54-13.35Q56.24-16.3 58.49-18.75L58.49-18.75Q59.04-19.35 59.09-19.5L59.09-19.5Q59.24-19.65 59.79-19.6 60.34-19.55 60.34-19.1L60.34-19.1Q60.34-18.9 59.62-17.73 58.89-16.55 53.69-8ZM46.09 2.1L46.09 2.1 50.14-4.8Q44.39-0.45 39.29 6.83 34.19 14.1 34.19 17.55L34.19 17.55Q34.19 18 34.49 18L34.49 18Q37.64 18 46.09 2.1ZM71.24-5.95L71.24-5.95Q70.94-5.95 70.94-6.3L70.94-6.3 71.09-6.65Q71.99-7.5 71.99-8.1L71.99-8.1Q71.99-8.85 71.19-8.85L71.19-8.85Q69.44-8.85 66.47-6.43 63.49-4 63.49-2.1L63.49-2.1Q63.49-1.3 64.54-1.3 65.59-1.3 66.97-2.18 68.34-3.05 69.32-3.93 70.29-4.8 70.39-4.8L70.39-4.8Q70.89-4.75 70.89-4.3L70.89-4.3Q70.89-4.1 70.12-3 69.34-1.9 69.34-1.25L69.34-1.25Q69.34-0.75 70.17-0.75 70.99-0.75 73.09-1.73 75.19-2.7 76.79-3.7L76.79-3.7 78.39-4.7Q78.44-4.6 78.44-4.3 78.44-4 77.99-3.8L77.99-3.8Q71.24 0.8 68.59 0.8L68.59 0.8Q67.29 0.8 67.29-0.5L67.29-0.5Q67.29-1.05 67.49-1.65L67.49-1.65Q67.14-1.25 65.42-0.43 63.69 0.4 62.34 0.4 60.99 0.4 60.99-0.85L60.99-0.85Q60.99-3.8 65.09-6.88 69.19-9.95 71.99-9.95L71.99-9.95Q73.64-9.95 73.64-8.55L73.64-8.55Q73.64-7.75 72.64-6.85 71.64-5.95 71.24-5.95ZM108.99-23.5L108.99-23.5Q107.04-23.5 107.04-25.2L107.04-25.2Q107.04-27.8 109.94-30.1 112.84-32.4 116.84-33.85L116.84-33.85Q116.49-35.3 115.04-36.08 113.59-36.85 111.46-36.85 109.34-36.85 107.06-36.05 104.79-35.25 102.76-33.77 100.74-32.3 99.46-29.88 98.19-27.45 98.19-24.55L98.19-24.55Q98.19-23.55 99.69-18.7 101.19-13.85 101.19-10.65L101.19-10.65Q101.19-9.85 100.99-8.35L100.99-8.35Q102.89-8.55 103.74-8.55L103.74-8.55Q108.59-8.55 108.59-6L108.59-6Q108.59-5.1 108.04-4.5 107.49-3.9 106.19-3.1L106.19-3.1Q105.79-3.35 105.79-3.55 105.79-3.75 105.99-3.9L105.99-3.9Q107.49-4.75 107.49-5.6L107.49-5.6Q107.49-7.3 103.54-7.3L103.54-7.3Q102.09-7.3 100.74-7.1L100.74-7.1Q99.89-3.9 97.56-1.13 95.24 1.65 92.39 3.38 89.54 5.1 86.66 6.05 83.79 7 81.59 7L81.59 7Q78.19 7 78.19 5L78.19 5Q78.19 2.2 81.69-0.65 85.19-3.5 90.01-5.43 94.84-7.35 99.49-8.15L99.49-8.15Q99.69-9.55 99.69-10.4L99.69-10.4Q99.69-12.55 98.11-17.13 96.54-21.7 96.54-25 96.54-28.3 99.14-31.58 101.74-34.85 105.31-36.6 108.89-38.35 112.09-38.35L112.09-38.35Q117.14-38.35 117.64-34.1L117.64-34.1Q120.44-35 121.44-35 122.44-35 122.51-34.93 122.59-34.85 122.59-34.35 122.59-33.85 122.14-33.7L122.14-33.7Q119.89-33.6 117.69-33.05L117.69-33.05Q117.59-29 114.64-26.25 111.69-23.5 108.99-23.5ZM80.14 3.75L80.14 3.75Q80.14 5.2 83.04 5.2L83.04 5.2Q87.09 5.2 92.09 2.3L92.09 2.3Q94.54 0.9 96.51-1.53 98.49-3.95 99.24-6.9L99.24-6.9Q94.99-6.2 90.71-4.65 86.44-3.1 83.29-0.83 80.14 1.45 80.14 3.75ZM108.64-25.5L108.64-25.5Q108.64-24.55 109.64-24.55L109.64-24.55Q111.54-24.55 114.21-27.13 116.89-29.7 116.94-32.8L116.94-32.8Q113.44-31.7 111.04-29.75 108.64-27.8 108.64-25.5ZM117.38-15.25L117.38-15.25Q118.13-15.25 118.13-14.5 118.13-13.75 117.43-12.98 116.73-12.2 115.88-12.2L115.88-12.2Q115.18-12.2 115.18-13.18 115.18-14.15 115.98-14.7 116.78-15.25 117.38-15.25ZM112.68-8.65L112.68-8.65Q112.93-9.05 113.38-9.05 113.83-9.05 114.28-8.6L114.28-8.6Q114.28-8.4 113.63-7.7 112.98-7 111.43-4.58 109.88-2.15 109.88-1.35L109.88-1.35Q109.88-0.85 110.63-0.75L110.63-0.75Q111.63-0.75 113.73-1.73 115.83-2.7 117.43-3.7L117.43-3.7 119.03-4.7Q119.08-4.6 119.08-4.3 119.08-4 118.63-3.8L118.63-3.8Q111.88 0.8 109.23 0.8L109.23 0.8Q107.93 0.8 107.93-0.5 107.93-1.8 109.36-4.13 110.78-6.45 112.68-8.65ZM117.58-3.8L117.58-3.8Q118.53-4.35 120.08-5.55L120.08-5.55Q123.88-8.55 124.13-8.55L124.13-8.55Q124.88-8.55 124.88-7.9 124.88-7.25 124.11-5.9 123.33-4.55 122.36-3.1 121.38-1.65 121.23-1.35L121.23-1.35Q121.28-1.3 121.46-1.3 121.63-1.3 123.43-2.63 125.23-3.95 127.18-5.43 129.13-6.9 129.48-7.13 129.83-7.35 130.13-7.35L130.13-7.35Q130.73-7.3 130.73-6.65L130.73-6.65Q130.73-6.4 129.03-4.13 127.33-1.85 127.33-1.2L127.33-1.2Q127.33-0.75 128.41-0.75 129.48-0.75 131.58-1.73 133.68-2.7 135.28-3.7L135.28-3.7 136.88-4.7Q136.93-4.6 136.93-4.3 136.93-4 136.48-3.8L136.48-3.8Q129.73 0.8 127.08 0.8L127.08 0.8Q125.53 0.8 125.53-0.4L125.53-0.4Q125.53-1.55 126.21-2.6 126.88-3.65 127.38-4.38 127.88-5.1 127.88-5.15L127.88-5.15Q125.58-3.5 122.43-1.2 119.28 1.1 118.88 1.1L118.88 1.1Q118.58 1.1 118.58 0.4 118.58-0.3 120.56-3.25 122.53-6.2 122.53-6.4 122.53-6.6 122.43-6.6L122.43-6.6 121.93-6.35 119.43-4.35Q119.18-4.15 118.48-3.7 117.78-3.25 117.61-3.25 117.43-3.25 117.43-3.48 117.43-3.7 117.58-3.8ZM144.13-4.7L144.13-4.7Q143.78-3.35 143.78-1.8 143.78-0.25 145.08-0.25L145.08-0.25Q145.43-0.25 146.25-0.63 147.08-1 147.2-1 147.33-1 147.33-0.9L147.33-0.9Q147.33-0.3 146.28 0.35 145.23 1 144.18 1L144.18 1Q142.08 1 142.08-1.8L142.08-1.8Q142.08-2.45 142.13-2.8L142.13-2.8Q138.13 0.7 136 0.7 133.88 0.7 133.88-0.75L133.88-0.75Q133.88-2.9 137.55-6.13 141.23-9.35 144.53-9.8L144.53-9.8Q147.38-15.65 151.55-20.75 155.73-25.85 157.98-25.85L157.98-25.85Q158.38-25.85 158.63-25.43 158.88-25 158.88-24.6L158.88-24.6Q158.88-22.95 154-16.3 149.13-9.65 144.13-4.7ZM157.03-23.85L157.03-23.85Q157.03-24.25 156.73-24.25L156.73-24.25Q155.88-24.25 153.5-21.45 151.13-18.65 148.53-14.33 145.93-10 144.68-6.4L144.68-6.4Q149.33-11.3 153.18-16.55 157.03-21.8 157.03-23.85ZM136.28-1.15L136.28-1.15Q136.28-0.4 137.13-0.4L137.13-0.4Q138.48-0.4 142.38-4.15L142.38-4.15Q143.03-6.45 143.93-8.4L143.93-8.4Q141.48-7.8 138.88-5.2 136.28-2.6 136.28-1.15ZM149.98-0.65L149.98-0.65Q150.43-0.65 155-4.63 159.58-8.6 160.38-8.6 161.18-8.6 161.18-7.9L161.18-7.9Q161.18-7.35 160.18-6.2 159.18-5.05 158.2-3.7 157.23-2.35 157.23-1.3L157.23-1.3Q157.23-0.75 158.05-0.75 158.88-0.75 160.98-1.73 163.08-2.7 164.68-3.7L164.68-3.7 166.28-4.7Q166.33-4.6 166.33-4.3 166.33-4 165.88-3.8L165.88-3.8Q159.13 0.8 156.48 0.8L156.48 0.8Q155.18 0.8 155.18-0.6L155.18-0.6Q155.18-1.55 155.88-2.9 156.58-4.25 157.28-5.15L157.28-5.15 157.93-6.05Q155.68-4.35 153.28-2.23 150.88-0.1 149.63 0.98 148.38 2.05 147.88 2.05 147.38 2.05 147.38 1.33 147.38 0.6 149.73-3.7 152.08-8 155.15-12.98 158.23-17.95 161.6-22 164.98-26.05 166.73-26.05L166.73-26.05Q167.48-26.05 167.78-25.35L167.78-25.35Q167.93-25.1 167.93-24.75L167.93-24.75Q167.93-21.3 157.58-11.5L157.58-11.5Q155.63-9.6 153.78-8L153.78-8Q149.98-1.6 149.98-0.65ZM166.28-24.2L166.28-24.2Q166.28-24.7 166.03-24.7L166.03-24.7Q165.03-24.7 161.83-20.3 158.63-15.9 155.03-10.05L155.03-10.05Q166.28-20.3 166.28-24.2ZM171.12-0.5L171.12-0.5Q171.12-1.05 171.95-2.35 172.77-3.65 173.05-4 173.32-4.35 173.87-5.1L173.87-5.1Q167.92 0.3 165.67 0.3L165.67 0.3Q164.42 0.3 164.42-0.75L164.42-0.75Q164.42-2.25 169.47-9.2L169.47-9.2Q169.72-9.6 170.12-9.6L170.12-9.6Q171.27-9.25 171.27-9.1 171.27-8.95 170.97-8.5L170.97-8.5Q166.67-2.7 166.67-1.98 166.67-1.25 167.17-1.25L167.17-1.25Q168.57-1.25 172.15-4.48 175.72-7.7 177.32-9.8L177.32-9.8Q177.52-10.15 177.97-10.15L177.97-10.15Q178.97-9.95 178.97-9.75L178.97-9.75Q178.42-8.95 177.47-7.65 176.52-6.35 175.92-5.53 175.32-4.7 174.67-3.75L174.67-3.75Q173.42-2.05 173.17-1.25L173.17-1.25Q173.17-0.75 174-0.75 174.82-0.75 176.92-1.73 179.02-2.7 180.62-3.7L180.62-3.7 182.22-4.7Q182.27-4.6 182.27-4.3 182.27-4 181.82-3.8L181.82-3.8Q175.07 0.8 172.42 0.8L172.42 0.8Q171.12 0.8 171.12-0.5Z" opacity="1" transform="matrix(1,0,0,1,0,0)" fill="#000000" class="wordmark-text-0" data-fill-palette-color="primary" id="text-0"></path></svg></g></svg></g></svg></g></svg></g></svg></g><defs></defs></svg><rect width="395.52" height="125.40348875479978" fill="none" stroke="none" visibility="hidden"></rect></g></svg></g></svg>